<svg xmlns="http://www.w3.org/2000/svg" viewBox="0 0 157 127.79"><defs><style>.cls-1{fill:#a7abaf;}.cls-2{fill:#becadc;}.cls-3{fill:#c8ced6;}.cls-4{fill:none;stroke:#000;stroke-miterlimit:10;stroke-width:2px;}</style></defs><title>Asset 1</title><g id="Layer_2" data-name="Layer 2"><g id="Layer_1-2" data-name="Layer 1"><polygon class="cls-1" points="156 38.39 156 89.41 78.5 126.68 78 126.44 78 75.8 78.09 75.6 78.17 75.64 155.5 38.45 155.62 38.2 156 38.39"/><polygon class="cls-2" points="155.62 38.2 155.5 38.45 78.17 75.64 78.09 75.6 1.34 38.93 1 38.93 1 38.39 78.5 1.11 155.62 38.2"/><polygon class="cls-3" points="78.09 75.6 78 75.8 78 126.44 1 89.41 1 38.93 1.34 38.93 78.09 75.6"/><polygon class="cls-4" points="155.62 38.2 156 38.39 156 89.41 78.5 126.68 78 126.44 1 89.41 1 38.93 1 38.39 78.5 1.11 155.62 38.2"/><polyline class="cls-4" points="1.34 38.93 78.09 75.6 78.17 75.64"/><polyline class="cls-4" points="78 75.8 78 126.44 78 126.8"/><line class="cls-4" x1="155.5" y1="38.45" x2="78.17" y2="75.64"/></g></g></svg>