<svg xmlns="http://www.w3.org/2000/svg" viewBox="0 0 160.08 128.21"><defs><style>.cls-1{fill:#a7abaf;}.cls-2{fill:#c8ced6;}.cls-3{fill:#35b769;}.cls-4{fill:none;stroke:#000;stroke-miterlimit:10;stroke-width:2px;}</style></defs><title>Asset 5</title><g id="Layer_2" data-name="Layer 2"><g id="Layer_1-2" data-name="Layer 1"><polygon class="cls-1" points="80.14 127.11 80.06 75.92 158.99 38.39 159 38.39 159.08 89.58 80.14 127.11"/><polygon class="cls-2" points="1.52 39.13 80.06 75.92 80.14 127.11 1.08 89.82 1 39.13 1.52 39.13"/><polygon class="cls-3" points="79.94 1.11 158.99 38.39 80.06 75.92 1.52 39.13 1 39.13 1 38.63 79.94 1.11"/><polyline class="cls-4" points="159 38.39 159.08 89.58 80.14 127.11 1.08 89.82 1 39.13 1 38.63 79.94 1.11 158.99 38.39"/><line class="cls-4" x1="1.52" y1="39.12" x2="80.06" y2="75.92"/><line class="cls-4" x1="80.06" y1="75.92" x2="80.14" y2="127.11"/><polyline class="cls-4" points="159 38.39 158.99 38.39 80.06 75.92"/></g></g></svg>