<svg xmlns="http://www.w3.org/2000/svg" viewBox="0 0 160 128.21"><defs><style>.cls-1{fill:#a7abaf;}.cls-2{fill:#becadc;}.cls-3{fill:#c8ced6;}.cls-4{fill:none;stroke:#000;stroke-miterlimit:10;stroke-width:2px;}</style></defs><title>Asset 3</title><g id="Layer_2" data-name="Layer 2"><g id="Layer_1-2" data-name="Layer 1"><polygon class="cls-1" points="159 38.51 159 89.7 80 127.11 80 75.92 159 38.51"/><polygon class="cls-2" points="159 38.51 80 75.92 1.52 39.01 1 39.01 1 38.51 80 1.11 159 38.51"/><polygon class="cls-3" points="80 75.92 80 127.11 1 89.7 1 39.01 1.52 39.01 80 75.92"/><polygon class="cls-4" points="159 38.51 159 89.7 80 127.11 1 89.7 1 39.01 1 38.51 80 1.11 159 38.51"/><line class="cls-4" x1="1.52" y1="39" x2="80" y2="75.92"/><line class="cls-4" x1="80" y1="75.92" x2="80" y2="127.11"/><line class="cls-4" x1="159" y1="38.51" x2="80" y2="75.92"/></g></g></svg>