<svg xmlns="http://www.w3.org/2000/svg" viewBox="0 0 160 130.22"><defs><style>.cls-1{fill:#a7abaf;}.cls-2{fill:#becadc;}.cls-3{fill:#c8ced6;}.cls-4{fill:none;stroke:#000;stroke-miterlimit:10;stroke-width:2px;}</style></defs><title>Asset 2</title><g id="Layer_2" data-name="Layer 2"><g id="Layer_1-2" data-name="Layer 1"><polygon class="cls-1" points="159 39.11 159 91.11 80 129.11 80 77.11 159 39.11"/><polygon class="cls-2" points="159 39.11 80 77.11 1.52 39.61 1 39.61 1 39.11 80 1.11 159 39.11"/><polygon class="cls-3" points="80 77.11 80 129.11 1 91.11 1 39.61 1.52 39.61 80 77.11"/><polygon class="cls-4" points="159 39.11 159 91.11 80 129.11 1 91.11 1 39.61 1 39.11 80 1.11 159 39.11"/><line class="cls-4" x1="1.52" y1="39.61" x2="80" y2="77.11"/><line class="cls-4" x1="80" y1="77.11" x2="80" y2="129.11"/><line class="cls-4" x1="159" y1="39.11" x2="80" y2="77.11"/></g></g></svg>